<svg height="512pt" viewBox="0 -8 512 512" width="512pt" xmlns="http://www.w3.org/2000/svg"><path d="m496.96875 247.394531c0 109.679688-74.027344 205.574219-180.019531 233.195313l3.789062 14.546875c112.613281-29.351563 191.261719-131.226563 191.261719-247.742188zm0 0"/><path d="m193.808594 14.523438-3.867188-14.523438c-111.835937 29.789062-189.941406 131.519531-189.941406 247.394531h15.03125c0-109.074219 73.515625-204.835937 178.777344-232.871093zm0 0"/><path d="m479.9375 247.394531c0-59.816406-23.292969-116.054687-65.589844-158.347656-42.296875-42.296875-98.53125-65.589844-158.347656-65.589844s-116.050781 23.292969-158.347656 65.589844c-42.296875 42.292969-65.589844 98.53125-65.589844 158.347656 0 59.816407 23.292969 116.050781 65.589844 158.347657 42.296875 42.292968 98.53125 65.589843 158.347656 65.589843s116.050781-23.296875 158.347656-65.589843c42.296875-42.296876 65.589844-98.53125 65.589844-158.347657zm-342.851562 129.539063c7.34375 6.742187 15.019531 12.882812 23.476562 18.335937 26.265625 16.941407 56.359375 26.46875 87.421875 27.792969v33.089844c-51.101563-1.847656-98.855469-22.738282-134.464844-55.898438zm125.929687 46.132812c43.082031-1.8125 81.984375-19.007812 111.582031-46.195312l23.257813 23.382812c-35.609375 33.15625-82.738281 54.050782-134.839844 55.898438zm122.460937-56.574218c27.191407-29.597657 44.386719-69 46.195313-111.082032h33.085937c-1.847656 51.097656-22.742187 98.980469-55.898437 134.589844zm79.28125-126.113282h-33.085937c-1.808594-43.082031-19.003906-81.988281-46.195313-111.585937l23.382813-23.253907c33.160156 35.609376 54.054687 82.738282 55.898437 134.839844zm-327.859374-122.460937-23.507813-23.382813c35.613281-33.160156 83.492187-54.054687 134.59375-55.898437v33.085937c-42.082031 1.808594-81.488281 19.003906-111.085937 46.195313zm126.117187-79.28125c52.101563 1.84375 99.355469 22.738281 134.964844 55.898437l-23.507813 23.382813c-29.597656-27.191407-68.375-44.386719-111.457031-46.195313zm-159.875 66.773437 23.382813 23.507813c-27.191407 29.601562-44.386719 68.378906-46.195313 111.460937h-33.085937c1.84375-52.101562 22.738281-99.355468 55.898437-134.96875zm-55.898437 150h33.078124c.613282 14.027344 2.996094 28.613282 7.117188 42.464844l14.40625-4.410156c-4.417969-14.84375-6.65625-30.367188-6.65625-46.007813 0-88.675781 72.140625-160.847656 160.8125-160.847656s160.8125 72.125 160.8125 160.800781c0 88.671875-72.140625 160.804688-160.8125 160.804688-31.007812 0-61.105469-8.84375-87.039062-25.570313-25.269532-16.296875-45.429688-39.234375-58.300782-66.328125l-13.578125 6.449219c7.59375 15.984375 17.527344 30.625 29.382813 43.535156l-23.328125 23.574219c-33.15625-35.609375-54.050781-83.367188-55.894531-134.464844zm0 0"/><path d="m384.75 247.394531h15.03125c0-79.28125-64.5-143.78125-143.78125-143.78125v15.027344c70.992188 0 128.75 57.757813 128.75 128.753906zm0 0"/><path d="m172.375 65.128906 13.886719-5.75 6.136719 14.808594-13.886719 5.753906zm0 0"/><path d="m319.621094 420.597656 13.886718-5.75 6.136719 14.808594-13.886719 5.753906zm0 0"/><path d="m67.992188 177.644531 5.75-13.882812 14.8125 6.132812-5.75 13.886719zm0 0"/><path d="m423.457031 324.875 5.753907-13.886719 14.808593 6.136719-5.75 13.882812zm0 0"/><path d="m67.988281 317.144531 14.8125-6.132812 5.75 13.882812-14.808593 6.136719zm0 0"/><path d="m423.460938 169.894531 14.8125-6.132812 5.75 13.882812-14.808594 6.136719zm0 0"/><path d="m172.382812 429.660156 6.132813-14.8125 13.886719 5.753906-6.132813 14.808594zm0 0"/><path d="m319.617188 74.183594 6.132812-14.808594 13.886719 5.75-6.136719 14.8125zm0 0"/></svg>