<svg id="Layer_1" enable-background="new 0 0 512 512" height="512" viewBox="0 0 512 512" width="512" xmlns="http://www.w3.org/2000/svg"><g><path d="m128.04 150.25c-24.531 29.651-38.04 67.207-38.04 105.75 0 91.532 74.467 166 166 166s166-74.468 166-166-74.467-166-166-166c-38.542 0-76.098 13.51-105.749 38.04-3.191 2.64-3.638 7.367-.998 10.559 2.641 3.192 7.368 3.64 10.56.998 26.967-22.31 61.127-34.597 96.187-34.597 83.262 0 151 67.738 151 151s-67.738 151-151 151-151-67.738-151-151c0-35.061 12.287-69.221 34.597-96.188 2.64-3.192 2.193-7.92-.998-10.56-3.192-2.64-7.92-2.191-10.559.998z"/><path d="m256 392c74.991 0 136-61.01 136-136s-61.009-136-136-136-136 61.01-136 136 61.009 136 136 136zm0-257c66.72 0 121 54.28 121 121s-54.28 121-121 121-121-54.28-121-121 54.28-121 121-121z"/><path d="m256 255c28.949 0 52.5-23.552 52.5-52.5s-23.551-52.5-52.5-52.5-52.5 23.552-52.5 52.5 23.551 52.5 52.5 52.5zm0-90c20.678 0 37.5 16.822 37.5 37.5s-16.822 37.5-37.5 37.5-37.5-16.822-37.5-37.5 16.822-37.5 37.5-37.5z"/><path d="m167.218 313.92c19.678 30.106 52.867 48.08 88.782 48.08s69.104-17.974 88.782-48.08c.797-1.22 1.222-2.646 1.222-4.104v-2.316c0-20.678-16.822-37.5-37.5-37.5h-105.008c-20.678 0-37.5 16.822-37.5 37.5v2.316c0 1.457.424 2.884 1.222 4.104zm13.778-6.42c0-12.406 10.093-22.5 22.5-22.5h105.009c12.407 0 22.5 10.094 22.5 22.5-17.03 24.788-44.904 39.5-75.005 39.5s-57.975-14.712-75.004-39.5z"/><path d="m74.981 128.013c7.083 7.083 16.5 10.984 26.516 10.984s19.434-3.901 26.517-10.983c7.083-7.083 10.983-16.5 10.983-26.517s-3.9-19.434-10.983-26.517c-7.083-7.082-16.5-10.983-26.517-10.983s-19.434 3.901-26.516 10.983c-7.083 7.083-10.984 16.5-10.984 26.517s3.901 19.434 10.984 26.516zm10.606-42.426c4.25-4.249 9.9-6.59 15.91-6.59s11.66 2.341 15.91 6.591c4.25 4.249 6.59 9.899 6.59 15.909s-2.34 11.66-6.59 15.909c-4.25 4.25-9.9 6.591-15.91 6.591s-11.66-2.341-15.91-6.59c-4.25-4.25-6.59-9.9-6.59-15.91s2.341-11.66 6.59-15.91z"/><path d="m158.033 61.062c2.776 1.149 5.693 1.725 8.61 1.725s5.835-.575 8.611-1.726c5.552-2.299 9.877-6.624 12.177-12.176 2.3-5.553 2.3-11.669 0-17.221-2.3-5.553-6.624-9.877-12.177-12.177s-11.668-2.3-17.22-.001c-5.553 2.3-9.877 6.625-12.178 12.177-2.3 5.553-2.3 11.669 0 17.222s6.625 9.877 12.177 12.177zm1.681-23.658c.767-1.852 2.208-3.293 4.059-4.06 1.85-.766 3.889-.766 5.74 0 1.851.767 3.292 2.208 4.059 4.06.767 1.851.767 3.889 0 5.74s-2.208 3.292-4.059 4.059c-1.851.766-3.89.766-5.74 0-1.851-.767-3.292-2.208-4.059-4.059s-.766-3.889 0-5.74z"/><path d="m180.994 74.919c-3.827 1.585-5.644 5.972-4.059 9.799s5.972 5.644 9.799 4.059 5.644-5.972 4.059-9.799c-1.585-3.826-5.972-5.644-9.799-4.059z"/><path d="m31.663 187.431c2.808 1.163 5.716 1.713 8.581 1.713 8.833 0 17.232-5.234 20.817-13.89 2.3-5.553 2.3-11.669 0-17.222-2.3-5.552-6.625-9.877-12.177-12.176-5.553-2.301-11.668-2.301-17.221 0-5.553 2.3-9.877 6.624-12.177 12.177-4.747 11.461.715 24.649 12.177 29.398zm1.682-23.658c.767-1.852 2.208-3.293 4.059-4.06 1.851-.766 3.889-.767 5.741.001 1.851.766 3.292 2.207 4.059 4.059.767 1.851.767 3.89 0 5.74-1.583 3.819-5.976 5.641-9.799 4.06-3.822-1.583-5.643-5.979-4.06-9.8z"/><ellipse cx="81.849" cy="183.864" rx="7.5" ry="7.5" transform="matrix(.691 -.723 .723 .691 -107.608 115.957)"/><path d="m31.663 324.569c-11.462 4.749-16.924 17.937-12.176 29.397 2.3 5.553 6.624 9.877 12.177 12.177 2.776 1.15 5.693 1.726 8.61 1.726s5.834-.575 8.61-1.725c5.553-2.3 9.877-6.625 12.178-12.177 2.3-5.553 2.3-11.669 0-17.222-4.749-11.462-17.937-16.922-29.399-12.176zm15.54 23.658c-.767 1.852-2.208 3.293-4.059 4.059-1.851.767-3.89.767-5.741.001-1.851-.767-3.292-2.208-4.059-4.06-1.583-3.82.238-8.217 4.058-9.799.936-.388 1.906-.571 2.86-.571 2.945 0 5.745 1.745 6.939 4.63.769 1.85.769 3.889.002 5.74z"/><path d="m78.979 321.207c-3.827 1.585-5.644 5.972-4.059 9.799s5.972 5.644 9.799 4.059 5.644-5.972 4.059-9.799-5.973-5.644-9.799-4.059z"/><path d="m175.254 450.939c-5.553-2.301-11.668-2.3-17.221-.001-5.552 2.3-9.877 6.624-12.177 12.177s-2.3 11.669 0 17.222c2.3 5.552 6.625 9.877 12.177 12.176 2.776 1.15 5.693 1.726 8.61 1.726s5.834-.575 8.61-1.726c5.553-2.3 9.877-6.624 12.177-12.177s2.3-11.668 0-17.221c-2.299-5.552-6.624-9.877-12.176-12.176zm-1.682 23.657c-.767 1.852-2.208 3.293-4.059 4.06-1.851.766-3.889.767-5.741-.001-1.851-.766-3.292-2.207-4.059-4.059-.767-1.851-.767-3.89 0-5.74s2.208-3.292 4.059-4.059c.925-.383 1.897-.575 2.869-.575.973 0 1.945.192 2.871.575 1.851.767 3.292 2.208 4.059 4.059.768 1.851.768 3.889.001 5.74z"/><path d="m186.734 423.222c-3.827-1.585-8.214.232-9.799 4.059s.232 8.214 4.059 9.799 8.214-.232 9.799-4.059c1.585-3.826-.232-8.214-4.059-9.799z"/><path d="m353.967 450.938c-5.553-2.299-11.669-2.3-17.221.001-5.552 2.299-9.877 6.624-12.177 12.176-2.3 5.553-2.3 11.669 0 17.221 2.3 5.553 6.624 9.877 12.177 12.177 2.777 1.15 5.693 1.726 8.61 1.726s5.834-.575 8.61-1.725c5.553-2.3 9.877-6.625 12.178-12.177 2.3-5.553 2.3-11.669 0-17.222-2.3-5.552-6.625-9.877-12.177-12.177zm-1.681 23.658c-.767 1.852-2.208 3.293-4.059 4.06-1.85.766-3.889.766-5.74 0-1.851-.767-3.292-2.208-4.059-4.06-.767-1.851-.767-3.889 0-5.74s2.208-3.292 4.059-4.059c.925-.383 1.898-.575 2.87-.575s1.945.192 2.87.575c1.851.767 3.292 2.208 4.059 4.059s.766 3.889 0 5.74z"/><path d="m331.006 437.08c3.827-1.585 5.644-5.972 4.059-9.799s-5.972-5.644-9.799-4.059-5.644 5.972-4.059 9.799 5.972 5.645 9.799 4.059z"/><path d="m480.337 324.569c-11.461-4.746-24.65.715-29.398 12.177-2.3 5.553-2.3 11.669 0 17.222 2.3 5.552 6.625 9.877 12.177 12.176 2.776 1.15 5.693 1.726 8.61 1.726s5.834-.575 8.61-1.726c5.553-2.3 9.877-6.624 12.177-12.177 4.748-11.461-.714-24.649-12.176-29.398zm-1.682 23.658c-.767 1.852-2.208 3.293-4.059 4.06-1.851.766-3.889.767-5.741-.001-1.851-.766-3.292-2.207-4.059-4.059-.767-1.851-.767-3.89 0-5.74 1.195-2.885 3.995-4.63 6.939-4.63.954 0 1.924.184 2.859.57 3.823 1.583 5.644 5.979 4.061 9.8z"/><path d="m423.222 325.266c-1.585 3.827.232 8.214 4.059 9.799s8.214-.232 9.799-4.059-.232-8.214-4.059-9.799c-3.826-1.585-8.214.232-9.799 4.059z"/><path d="m471.756 189.144c2.864 0 5.775-.551 8.581-1.713 11.462-4.749 16.924-17.937 12.176-29.397-2.3-5.553-6.624-9.877-12.177-12.177-5.553-2.301-11.668-2.3-17.22-.001-5.553 2.3-9.877 6.625-12.178 12.177-2.3 5.553-2.3 11.669 0 17.222 3.586 8.655 11.984 13.89 20.818 13.889zm-6.959-25.371c.767-1.852 2.208-3.293 4.059-4.059.926-.384 1.898-.575 2.871-.575.972 0 1.945.191 2.87.574 1.851.767 3.292 2.208 4.059 4.06 1.583 3.82-.238 8.217-4.058 9.799-3.824 1.583-8.218-.239-9.8-4.059-.768-1.85-.768-3.889-.001-5.74z"/><path d="m437.081 180.994c-1.585-3.827-5.972-5.644-9.799-4.059s-5.644 5.972-4.059 9.799 5.972 5.644 9.799 4.059c3.826-1.585 5.644-5.972 4.059-9.799z"/><path d="m336.746 61.061c2.777 1.15 5.694 1.726 8.611 1.726s5.834-.575 8.61-1.725c5.552-2.3 9.877-6.624 12.177-12.177s2.3-11.669 0-17.222c-2.3-5.552-6.625-9.877-12.177-12.176-5.553-2.301-11.668-2.301-17.221 0-5.553 2.3-9.877 6.624-12.177 12.177s-2.3 11.668 0 17.221c2.3 5.552 6.625 9.877 12.177 12.176zm1.682-23.657c.767-1.852 2.208-3.293 4.059-4.06.925-.383 1.898-.574 2.87-.574s1.945.191 2.871.575c1.851.766 3.292 2.207 4.059 4.059.767 1.851.767 3.89 0 5.74s-2.208 3.292-4.059 4.059c-1.85.766-3.889.766-5.74 0-1.851-.767-3.292-2.208-4.059-4.059-.768-1.851-.768-3.889-.001-5.74z"/><path d="m325.266 88.778c3.827 1.585 8.214-.232 9.799-4.059s-.232-8.214-4.059-9.799-8.214.232-9.799 4.059c-1.585 3.826.232 8.214 4.059 9.799z"/><path d="m75 256c0-20.678-16.822-37.5-37.5-37.5s-37.5 16.822-37.5 37.5 16.822 37.5 37.5 37.5 37.5-16.822 37.5-37.5zm-60 0c0-12.406 10.093-22.5 22.5-22.5s22.5 10.094 22.5 22.5-10.093 22.5-22.5 22.5-22.5-10.094-22.5-22.5z"/><path d="m101.497 373.003c-10.017 0-19.434 3.901-26.516 10.983-7.083 7.083-10.984 16.5-10.984 26.517s3.901 19.434 10.984 26.516c7.083 7.083 16.5 10.984 26.516 10.984s19.434-3.901 26.517-10.983c7.083-7.083 10.983-16.5 10.983-26.517s-3.9-19.434-10.983-26.517c-7.083-7.082-16.5-10.983-26.517-10.983zm15.91 53.409c-4.25 4.25-9.9 6.591-15.91 6.591s-11.66-2.341-15.91-6.591c-4.25-4.249-6.59-9.899-6.59-15.909s2.341-11.66 6.59-15.91c4.25-4.249 9.9-6.59 15.91-6.59s11.66 2.341 15.91 6.591c4.25 4.249 6.59 9.899 6.59 15.909s-2.34 11.66-6.59 15.909z"/><path d="m256 437c-20.678 0-37.5 16.822-37.5 37.5s16.822 37.5 37.5 37.5 37.5-16.822 37.5-37.5-16.822-37.5-37.5-37.5zm0 60c-12.407 0-22.5-10.094-22.5-22.5s10.093-22.5 22.5-22.5 22.5 10.094 22.5 22.5-10.093 22.5-22.5 22.5z"/><path d="m437.019 383.987c-7.083-7.083-16.5-10.984-26.516-10.984s-19.434 3.901-26.517 10.983c-7.083 7.083-10.983 16.5-10.983 26.517s3.9 19.434 10.983 26.517c7.083 7.082 16.5 10.983 26.517 10.983s19.434-3.901 26.516-10.983c7.083-7.083 10.984-16.5 10.984-26.517s-3.901-19.434-10.984-26.516zm-10.606 42.426c-4.25 4.249-9.9 6.59-15.91 6.59s-11.66-2.341-15.91-6.591c-4.25-4.249-6.59-9.899-6.59-15.909s2.34-11.66 6.59-15.909c4.25-4.25 9.9-6.591 15.91-6.591s11.66 2.341 15.91 6.59c4.25 4.25 6.59 9.9 6.59 15.91s-2.341 11.66-6.59 15.91z"/><path d="m474.5 218.5c-20.678 0-37.5 16.822-37.5 37.5s16.822 37.5 37.5 37.5 37.5-16.822 37.5-37.5-16.822-37.5-37.5-37.5zm0 60c-12.407 0-22.5-10.094-22.5-22.5s10.093-22.5 22.5-22.5 22.5 10.094 22.5 22.5-10.093 22.5-22.5 22.5z"/><path d="m410.503 138.997c10.017 0 19.434-3.901 26.516-10.983 7.083-7.083 10.984-16.5 10.984-26.517s-3.901-19.434-10.984-26.516c-7.083-7.083-16.5-10.984-26.516-10.984s-19.434 3.901-26.517 10.983c-7.083 7.083-10.983 16.5-10.983 26.517s3.9 19.434 10.983 26.517c7.083 7.082 16.5 10.983 26.517 10.983zm-15.91-53.409c4.25-4.25 9.9-6.591 15.91-6.591s11.66 2.341 15.91 6.591c4.25 4.249 6.59 9.899 6.59 15.909s-2.341 11.66-6.59 15.91c-4.25 4.249-9.9 6.59-15.91 6.59s-11.66-2.341-15.91-6.591c-4.25-4.249-6.59-9.899-6.59-15.909s2.34-11.66 6.59-15.909z"/><path d="m256 75c20.678 0 37.5-16.822 37.5-37.5s-16.822-37.5-37.5-37.5-37.5 16.822-37.5 37.5 16.822 37.5 37.5 37.5zm0-60c12.407 0 22.5 10.094 22.5 22.5s-10.093 22.5-22.5 22.5-22.5-10.094-22.5-22.5 10.093-22.5 22.5-22.5z"/></g></svg>